<?xml version="1.0" encoding="utf-8"?>
<!-- Generator: Adobe Illustrator 16.0.0, SVG Export Plug-In . SVG Version: 6.00 Build 0)  -->
<!DOCTYPE svg PUBLIC "-//W3C//DTD SVG 1.1//EN" "http://www.w3.org/Graphics/SVG/1.1/DTD/svg11.dtd">
<svg version="1.1"
	 id="svg4541" xmlns:sodipodi="http://sodipodi.sourceforge.net/DTD/sodipodi-0.dtd" xmlns:inkscape="http://www.inkscape.org/namespaces/inkscape" xmlns:dc="http://purl.org/dc/elements/1.1/" xmlns:cc="http://creativecommons.org/ns#" xmlns:rdf="http://www.w3.org/1999/02/22-rdf-syntax-ns#" xmlns:svg="http://www.w3.org/2000/svg" sodipodi:docname="VCF.svg" inkscape:version="0.92.2 5c3e80d, 2017-08-06"
	 xmlns="http://www.w3.org/2000/svg" xmlns:xlink="http://www.w3.org/1999/xlink" x="0px" y="0px" width="135.566px"
	 height="379.954px" viewBox="-7.693 0.023 135.566 379.954" enable-background="new -7.693 0.023 135.566 379.954"
	 xml:space="preserve">
<g>
	<path fill="#E6E6E6" d="M-7.693,0.065l135.566-0.042v379.911l-135.566,0.043V0.065z"/>
</g>
<line fill="none" stroke="#505151" stroke-width="1.5" stroke-miterlimit="10" x1="59.832" y1="347.492" x2="59.832" y2="69.909"/>
<path fill="none" stroke="#505151" stroke-width="1.5" stroke-miterlimit="10" d="M81.34,334.008"/>
<path fill="none" stroke="#505151" stroke-width="1.5" stroke-miterlimit="10" d="M69.84,334.008"/>
<sodipodi:namedview  units="px" fit-margin-left="0" fit-margin-top="0" showgrid="false" inkscape:cy="138.75941" inkscape:cx="-12.284485" inkscape:zoom="1.979899" borderopacity="1.0" bordercolor="#666666" pagecolor="#ffffff" id="base" inkscape:pageshadow="2" fit-margin-right="0" inkscape:window-maximized="0" inkscape:document-units="mm" inkscape:pageopacity="0.0" inkscape:window-width="2560" inkscape:window-height="1422" inkscape:window-y="18" inkscape:window-x="0" fit-margin-bottom="0" inkscape:current-layer="g13178">
	</sodipodi:namedview>
<g>
	<path stroke="#231F20" stroke-width="0.25" stroke-miterlimit="10" d="M60.129,366.671c-0.378,0.168-1.092,0.31-1.899,0.31
		c-2.22,0-3.635-1.347-3.635-3.502c0-2.004,1.373-3.644,3.929-3.644c0.562,0,1.188,0.101,1.625,0.269l-0.336,1.582
		c-0.259-0.104-0.637-0.211-1.188-0.211c-1.12,0-1.854,0.799-1.835,1.92c0,1.26,0.841,1.92,1.877,1.92
		c0.505,0,0.896-0.086,1.22-0.211L60.129,366.671z"/>
	<path stroke="#231F20" stroke-width="0.25" stroke-miterlimit="10" d="M62.045,361.066h1.271l0.042-0.447
		c0.105-0.938,0.645-3.039,3.04-3.039c0.479,0,0.911,0.098,1.163,0.225l-0.336,1.514c-0.169-0.062-0.396-0.127-0.659-0.127
		c-0.688,0-1.022,0.519-1.106,1.271l-0.098,0.604H66.8v1.482h-1.61l-0.312,2.493c-0.211,1.709-0.785,3.063-2.771,3.063
		c-0.562-0.021-1.062-0.125-1.271-0.234l0.294-1.48c0.21,0.084,0.438,0.108,0.659,0.108c0.688-0.019,0.938-0.396,1.14-1.985
		l0.229-1.965H62.05v-1.482H62.045L62.045,361.066z"/>
</g>
<path fill="none" stroke="#6C6C6D" stroke-miterlimit="10" d="M84.956,272.529"/>
<path fill="none" stroke="#6C6C6D" stroke-miterlimit="10" d="M51.257,262.523"/>
<path fill="none" stroke="#6C6C6D" stroke-miterlimit="10" d="M51.257,282.539"/>
<path fill="none" stroke="#6C6C6D" stroke-miterlimit="10" d="M38.465,282.539"/>
<path fill="none" stroke="#6C6C6D" stroke-miterlimit="10" d="M84.956,327.561"/>
<path fill="none" stroke="#6C6C6D" stroke-miterlimit="10" d="M57.261,322.559"/>
<path fill="none" stroke="#6C6C6D" stroke-miterlimit="10" d="M84.956,297.542"/>
<path fill="none" stroke="#6C6C6D" stroke-miterlimit="10" d="M51.257,292.541"/>
<path fill="none" stroke="#303232" stroke-miterlimit="10" d="M60.833,312.561"/>
<path fill="none" stroke="#303232" stroke-miterlimit="10" d="M44.469,312.561"/>
<path fill="none" stroke="#303232" stroke-miterlimit="10" d="M84.956,282.535"/>
<path fill="none" stroke="#303232" stroke-miterlimit="10" d="M60.833,272.529"/>
<path fill="none" stroke="#303232" stroke-miterlimit="10" d="M84.956,337.564"/>
<path fill="none" stroke="#303232" stroke-miterlimit="10" d="M60.833,332.564"/>
<path fill="none" stroke="#303232" stroke-miterlimit="10" d="M85.957,307.548"/>
<path fill="none" stroke="#303232" stroke-miterlimit="10" d="M61.195,302.547"/>
<path fill="none" stroke="#6C6C6D" stroke-miterlimit="10" d="M51.089,262.523"/>
<path fill="none" stroke="#6C6C6D" stroke-miterlimit="10" d="M57.093,322.559"/>
<path fill="none" stroke="#303232" stroke-miterlimit="10" d="M61.095,272.529"/>
<path fill="none" stroke="#303232" stroke-miterlimit="10" d="M61.095,332.564"/>
<path fill="none" stroke="#505151" stroke-width="1.5" stroke-miterlimit="10" d="M57.318,167"/>
<path fill="none" stroke="#505151" stroke-width="1.5" stroke-miterlimit="10" d="M56.832,334.008"/>
<path fill="none" stroke="#505151" stroke-width="1.5" stroke-miterlimit="10" d="M92.339,167"/>
<rect x="7.924" y="333.562" fill="#E6E6E6" width="99.667" height="11.955"/>
<g>
	<path stroke="#000000" stroke-miterlimit="10" d="M45.282,337.087h0.783v5.409h2.593v0.658h-3.376V337.087z"/>
	<path stroke="#000000" stroke-miterlimit="10" d="M52.674,340.31h-2.354v2.188h2.629v0.656h-3.412v-6.066h3.277v0.656h-2.494v1.918
		h2.354L52.674,340.31L52.674,340.31z"/>
	<path stroke="#000000" stroke-miterlimit="10" d="M53.959,343.154v-6.062h0.855l1.938,3.063c0.45,0.711,0.808,1.354,1.096,1.978
		l0.018-0.015c-0.071-0.811-0.09-1.549-0.09-2.494v-2.532h0.738v6.062h-0.792l-1.933-3.078c-0.423-0.676-0.828-1.369-1.135-2.021
		l-0.026,0.009c0.051,0.771,0.062,1.495,0.062,2.504v2.598h-0.732V343.154z"/>
	<path stroke="#000000" stroke-miterlimit="10" d="M64.502,342.884c-0.352,0.127-1.046,0.334-1.859,0.334
		c-0.924,0-1.681-0.233-2.272-0.802c-0.521-0.504-0.846-1.314-0.846-2.26c0.009-1.812,1.251-3.139,3.286-3.139
		c0.697,0,1.253,0.153,1.514,0.279l-0.188,0.639c-0.318-0.146-0.729-0.261-1.343-0.261c-1.478,0-2.438,0.918-2.438,2.438
		c0,1.539,0.926,2.447,2.341,2.447c0.513,0,0.864-0.07,1.045-0.161v-1.812h-1.234v-0.631h2L64.502,342.884L64.502,342.884z"/>
	<path stroke="#000000" stroke-miterlimit="10" d="M66.851,337.753h-1.85v-0.666h4.494v0.666h-1.854v5.401h-0.793L66.851,337.753
		L66.851,337.753z"/>
	<path stroke="#000000" stroke-miterlimit="10" d="M70.955,337.087v2.538h2.938v-2.538h0.792v6.067h-0.792v-2.851h-2.938v2.851
		h-0.783v-6.067H70.955z"/>
</g>
<path fill="#2C3540" stroke="#231F20" stroke-width="2" stroke-miterlimit="10" d="M110.173,270.223
	c0,1.563-1.271,2.834-2.835,2.834h-91.33c-1.565,0-2.834-1.271-2.834-2.834V72.334c0-1.565,1.269-2.834,2.834-2.834h91.332
	c1.562,0,2.835,1.269,2.835,2.834l-0.001,101.832L110.173,270.223L110.173,270.223z"/>
<circle stroke="#000000" stroke-width="2" stroke-miterlimit="10" cx="93.85" cy="18.888" r="12.861"/>
</svg>
