<?xml version="1.0" encoding="utf-8"?>
<!-- Generator: Adobe Illustrator 16.0.0, SVG Export Plug-In . SVG Version: 6.00 Build 0)  -->
<!DOCTYPE svg PUBLIC "-//W3C//DTD SVG 1.1//EN" "http://www.w3.org/Graphics/SVG/1.1/DTD/svg11.dtd">
<svg version="1.1"
	 id="svg4541" xmlns:sodipodi="http://sodipodi.sourceforge.net/DTD/sodipodi-0.dtd" xmlns:inkscape="http://www.inkscape.org/namespaces/inkscape" xmlns:dc="http://purl.org/dc/elements/1.1/" xmlns:cc="http://creativecommons.org/ns#" xmlns:rdf="http://www.w3.org/1999/02/22-rdf-syntax-ns#" xmlns:svg="http://www.w3.org/2000/svg" sodipodi:docname="VCA.svg" inkscape:version="0.92.2 5c3e80d, 2017-08-06"
	 xmlns="http://www.w3.org/2000/svg" xmlns:xlink="http://www.w3.org/1999/xlink" x="0px" y="0px" width="90.135px" height="380px"
	 viewBox="0 0 90.135 380" enable-background="new 0 0 90.135 380" xml:space="preserve">
<path id="path33453" fill="#E6E6E6" stroke="#595A5A" stroke-miterlimit="10" d="M0,0h90.135v379.912H0V0z"/>
<g>
	<rect x="-23.811" y="131.981" fill="#595A5A" stroke="#595A5A" stroke-miterlimit="10" width="1.586" height="202.199"/>
</g>
<sodipodi:namedview  units="px" fit-margin-left="0" fit-margin-top="0" showgrid="false" inkscape:cy="-87.479401" inkscape:cx="-640.37084" inkscape:zoom="0.49497475" borderopacity="1.0" bordercolor="#666666" pagecolor="#ffffff" id="base" inkscape:window-height="1422" inkscape:document-units="mm" inkscape:window-x="0" inkscape:window-maximized="0" fit-margin-bottom="0" inkscape:pageopacity="0.0" inkscape:window-y="18" inkscape:pageshadow="2" fit-margin-right="0" inkscape:current-layer="g13224" inkscape:window-width="2560">
	</sodipodi:namedview>
<g>
	<path stroke="#231F20" stroke-width="0.25" stroke-miterlimit="10" d="M44.021,367.67c-0.378,0.168-1.092,0.309-1.905,0.309
		c-2.213,0-3.628-1.346-3.628-3.502c0-2.004,1.373-3.643,3.922-3.643c0.561,0,1.177,0.1,1.625,0.268l-0.336,1.582
		c-0.252-0.104-0.63-0.211-1.19-0.211c-1.121,0-1.849,0.799-1.835,1.92c0,1.26,0.84,1.92,1.877,1.92
		c0.504,0,0.896-0.086,1.219-0.211L44.021,367.67z"/>
	<path stroke="#231F20" stroke-width="0.25" stroke-miterlimit="10" d="M45.937,362.066h1.274l0.042-0.448
		c0.111-0.938,0.63-3.039,3.039-3.039c0.477,0,0.911,0.098,1.163,0.224l-0.336,1.514c-0.169-0.062-0.394-0.127-0.659-0.127
		c-0.7,0-1.036,0.506-1.12,1.271l-0.084,0.605h1.429v1.479H49.08l-0.312,2.493c-0.211,1.709-0.785,3.062-2.771,3.062
		c-0.575-0.015-1.065-0.125-1.275-0.229l0.294-1.479c0.21,0.084,0.434,0.104,0.659,0.104c0.7-0.021,0.938-0.396,1.139-1.981
		l0.229-1.969H45.94v-1.479H45.937L45.937,362.066L45.937,362.066z"/>
</g>
<line fill="none" stroke="#7A7B7B" stroke-miterlimit="10" x1="24.571" y1="217.505" x2="65.563" y2="217.505"/>
<line fill="none" stroke="#7A7B7B" stroke-miterlimit="10" x1="24.571" y1="284.543" x2="65.563" y2="284.543"/>
<line fill="none" stroke="#7A7B7B" stroke-miterlimit="10" x1="24.571" y1="250.525" x2="65.563" y2="250.525"/>
<line fill="none" stroke="#BDBDBD" stroke-miterlimit="10" x1="29.573" y1="237.518" x2="60.562" y2="237.518"/>
<line fill="none" stroke="#BDBDBD" stroke-miterlimit="10" x1="29.573" y1="230.514" x2="60.562" y2="230.514"/>
<line fill="none" stroke="#BDBDBD" stroke-miterlimit="10" x1="29.573" y1="223.511" x2="60.562" y2="223.511"/>
<line fill="none" stroke="#BDBDBD" stroke-miterlimit="10" x1="29.573" y1="244.52" x2="60.562" y2="244.52"/>
<line fill="none" stroke="#BDBDBD" stroke-miterlimit="10" x1="29.573" y1="271.538" x2="60.562" y2="271.538"/>
<line fill="none" stroke="#BDBDBD" stroke-miterlimit="10" x1="29.573" y1="264.535" x2="60.562" y2="264.535"/>
<line fill="none" stroke="#BDBDBD" stroke-miterlimit="10" x1="29.573" y1="257.532" x2="60.562" y2="257.532"/>
<line fill="none" stroke="#BDBDBD" stroke-miterlimit="10" x1="29.573" y1="278.541" x2="60.562" y2="278.541"/>
<text transform="matrix(1 0 0 1 120.1543 86.1484)" font-family="'Futura-CondensedExtraBold'" font-size="10">SEND 2</text>
<text transform="matrix(1 0 0 1 126.6113 110.1484)" font-family="'Futura-CondensedExtraBold'" font-size="10">PAN</text>
<text transform="matrix(1 0 0 1 120.1543 60.1172)" font-family="'Futura-CondensedExtraBold'" font-size="10">SEND 1</text>
<g>
	<path fill="#999999" d="M-39.998,110.839v-2.319c0.4,0.547,0.833,0.82,1.299,0.82c0.176,0,0.319-0.045,0.43-0.134
		c0.111-0.089,0.166-0.202,0.166-0.337c0-0.194-0.121-0.384-0.361-0.57l-0.332-0.25c-0.221-0.16-0.41-0.32-0.566-0.478
		c-0.156-0.159-0.283-0.322-0.381-0.49c-0.098-0.168-0.169-0.341-0.215-0.521c-0.045-0.179-0.068-0.367-0.068-0.565
		c0-0.339,0.082-0.694,0.244-1.064c0.082-0.173,0.176-0.331,0.283-0.474s0.231-0.269,0.371-0.379
		c0.384-0.314,0.848-0.471,1.392-0.471c0.485,0,0.973,0.125,1.465,0.375v2.262c-0.166-0.257-0.355-0.46-0.566-0.608
		c-0.211-0.148-0.42-0.222-0.625-0.222c-0.156,0-0.285,0.044-0.386,0.132c-0.104,0.084-0.156,0.187-0.156,0.306
		c0,0.195,0.138,0.388,0.415,0.579l0.322,0.23c0.43,0.298,0.737,0.604,0.923,0.918c0.189,0.313,0.283,0.681,0.283,1.101
		c0,0.715-0.226,1.305-0.679,1.77c-0.453,0.465-1.025,0.697-1.719,0.697C-38.938,111.146-39.45,111.044-39.998,110.839z"/>
	<path fill="#999999" d="M-35.266,111.146v-7.539h3.784v1.807h-1.748v0.962h1.567v1.807h-1.567v1.157h1.748v1.807L-35.266,111.146
		L-35.266,111.146z"/>
	<path fill="#999999" d="M-30.612,111.146v-7.539h1.943l1.021,2.646c0.055,0.156,0.118,0.335,0.188,0.537s0.147,0.435,0.232,0.698
		l0.21,0.664c-0.075-0.654-0.132-1.214-0.171-1.68c-0.039-0.466-0.059-0.856-0.059-1.172v-1.694h1.963v7.539h-1.963l-1.087-2.773
		c-0.114-0.296-0.217-0.574-0.308-0.833c-0.091-0.259-0.172-0.505-0.241-0.74c0.081,0.531,0.141,0.993,0.178,1.387
		s0.056,0.739,0.056,1.035v1.924L-30.612,111.146L-30.612,111.146z"/>
	<path fill="#999999" d="M-24.25,111.146v-7.539h1.758c1.006,0,1.788,0.27,2.35,0.811c0.734,0.707,1.104,1.694,1.104,2.964
		c0,1.25-0.312,2.215-0.933,2.896c-0.531,0.58-1.322,0.869-2.373,0.869L-24.25,111.146L-24.25,111.146z M-22.213,109.34
		c0.729-0.036,1.094-0.664,1.094-1.885c0-0.602-0.093-1.078-0.278-1.426c-0.186-0.352-0.437-0.527-0.752-0.527h-0.062
		L-22.213,109.34L-22.213,109.34z"/>
	<path fill="#999999" d="M-11.329,111.146h-2.035v-5.732h-0.816v-1.807h2.853L-11.329,111.146L-11.329,111.146z"/>
</g>
<g>
	<path fill="#999999" d="M-31.342,146.153h-2.036v-7.539h1.973c0.983,0,1.712,0.2,2.188,0.601c0.56,0.472,0.84,1.128,0.84,1.968
		c0,0.915-0.298,1.597-0.894,2.046c-0.407,0.303-0.991,0.454-1.753,0.454h-0.317L-31.342,146.153L-31.342,146.153z M-31.342,142.096
		l0.093,0.005c0.248,0,0.444-0.076,0.591-0.227c0.147-0.151,0.22-0.359,0.22-0.623c0-0.26-0.072-0.472-0.215-0.635
		c-0.143-0.166-0.326-0.249-0.547-0.249h-0.142V142.096z"/>
	<path fill="#999999" d="M-22.558,146.153h-2.104l-0.151-0.957h-1.373l-0.166,0.957h-2.104l1.812-7.539h2.491L-22.558,146.153z
		 M-25.053,143.609l-0.132-0.879c-0.003-0.003-0.01-0.047-0.02-0.132c-0.006-0.072-0.041-0.355-0.103-0.85
		c-0.006-0.055-0.015-0.131-0.024-0.227c-0.009-0.096-0.023-0.217-0.039-0.364l-0.063-0.713c-0.006,0.068-0.016,0.145-0.027,0.229
		s-0.023,0.177-0.037,0.278c-0.023,0.202-0.039,0.342-0.049,0.42c-0.01,0.078-0.016,0.125-0.02,0.142l-0.142,0.913l-0.205,1.182
		L-25.053,143.609L-25.053,143.609z"/>
	<path fill="#999999" d="M-21.967,146.153v-7.539h1.942l1.021,2.646c0.057,0.156,0.118,0.335,0.188,0.537s0.147,0.435,0.231,0.698
		l0.21,0.664c-0.074-0.654-0.132-1.214-0.171-1.68s-0.06-0.856-0.06-1.172v-1.694h1.963v7.539h-1.963l-1.086-2.773
		c-0.115-0.296-0.217-0.574-0.309-0.833c-0.092-0.259-0.172-0.505-0.24-0.74c0.08,0.531,0.141,0.993,0.178,1.387
		s0.057,0.739,0.057,1.035v1.924L-21.967,146.153L-21.967,146.153z"/>
</g>
<g>
	<path fill="#999999" d="M-39.998,75.802v-2.319c0.4,0.547,0.833,0.82,1.299,0.82c0.176,0,0.319-0.045,0.43-0.134
		c0.111-0.089,0.166-0.202,0.166-0.337c0-0.194-0.121-0.384-0.361-0.57l-0.332-0.25c-0.221-0.16-0.41-0.32-0.566-0.478
		c-0.156-0.159-0.283-0.322-0.381-0.49c-0.098-0.168-0.169-0.341-0.215-0.521c-0.045-0.179-0.068-0.367-0.068-0.565
		c0-0.339,0.082-0.694,0.244-1.064c0.082-0.173,0.176-0.331,0.283-0.474s0.231-0.269,0.371-0.379
		c0.384-0.314,0.848-0.471,1.392-0.471c0.485,0,0.973,0.125,1.465,0.375v2.262c-0.166-0.257-0.355-0.46-0.566-0.608
		s-0.42-0.222-0.625-0.222c-0.156,0-0.285,0.044-0.386,0.132c-0.104,0.084-0.156,0.187-0.156,0.306c0,0.195,0.138,0.388,0.415,0.579
		l0.322,0.23c0.43,0.298,0.737,0.604,0.923,0.918c0.189,0.313,0.283,0.681,0.283,1.101c0,0.715-0.226,1.305-0.679,1.77
		c-0.453,0.465-1.025,0.697-1.719,0.697C-38.938,76.109-39.45,76.007-39.998,75.802z"/>
	<path fill="#999999" d="M-35.266,76.109V68.57h3.784v1.807h-1.748v0.962h1.567v1.807h-1.567v1.157h1.748v1.807L-35.266,76.109
		L-35.266,76.109z"/>
	<path fill="#999999" d="M-30.612,76.109V68.57h1.943l1.021,2.646c0.055,0.156,0.118,0.335,0.188,0.537s0.147,0.435,0.232,0.698
		l0.21,0.664c-0.075-0.654-0.132-1.214-0.171-1.68c-0.039-0.466-0.059-0.856-0.059-1.172V68.57h1.963v7.539h-1.963l-1.087-2.773
		c-0.114-0.296-0.217-0.574-0.308-0.833c-0.091-0.259-0.172-0.505-0.241-0.74c0.081,0.531,0.141,0.993,0.178,1.387
		s0.056,0.739,0.056,1.035v1.924H-30.612z"/>
	<path fill="#999999" d="M-24.25,76.109V68.57h1.758c1.006,0,1.788,0.27,2.35,0.811c0.734,0.707,1.104,1.694,1.104,2.964
		c0,1.25-0.312,2.215-0.933,2.896c-0.531,0.58-1.322,0.869-2.373,0.869L-24.25,76.109L-24.25,76.109z M-22.213,74.303
		c0.729-0.036,1.094-0.664,1.094-1.885c0-0.602-0.093-1.078-0.278-1.426c-0.186-0.352-0.437-0.527-0.752-0.527h-0.062
		L-22.213,74.303L-22.213,74.303z"/>
	<path fill="#999999" d="M-10.205,76.109h-5.162l2.061-2.727c0.234-0.31,0.431-0.587,0.591-0.831
		c0.159-0.244,0.284-0.459,0.376-0.646c0.179-0.353,0.27-0.714,0.27-1.085c0-0.204-0.043-0.365-0.129-0.484
		c-0.087-0.119-0.203-0.179-0.354-0.179c-0.33,0-0.495,0.306-0.495,0.918c0,0.033,0.001,0.072,0.002,0.117
		c0.002,0.045,0.004,0.099,0.008,0.161H-15l-0.01-0.273c0-0.751,0.231-1.356,0.699-1.816c0.47-0.462,1.07-0.694,1.801-0.694
		c0.705,0,1.281,0.229,1.729,0.687c0.449,0.449,0.676,1.034,0.676,1.757c0,0.581-0.152,1.145-0.457,1.694
		c-0.154,0.274-0.354,0.562-0.601,0.864c-0.245,0.301-0.543,0.619-0.892,0.951c0.301-0.079,0.604-0.135,0.91-0.169
		c0.308-0.034,0.621-0.051,0.94-0.051V76.109z"/>
</g>
<line fill="none" stroke="#595A5A" stroke-miterlimit="10" x1="-14.971" y1="-45.5" x2="-14.971" y2="517.167"/>
<g>
	<path d="M32.236,24.921h-2.443v-6.879h-1.348v-2.168h5.191v2.168h-1.4V24.921z"/>
	<path d="M40.703,24.921H38.06l-1.207-3.223c-0.012-0.055-0.032-0.127-0.062-0.217s-0.065-0.197-0.108-0.322l0.018,0.598v3.164
		h-2.432v-9.047h2.502c1.102,0,1.926,0.217,2.473,0.65c0.695,0.555,1.043,1.344,1.043,2.367c0,1.094-0.467,1.85-1.4,2.268
		L40.703,24.921z M36.712,19.935h0.164c0.281,0,0.516-0.107,0.703-0.322c0.187-0.215,0.281-0.488,0.281-0.82
		c0-0.676-0.354-1.014-1.061-1.014h-0.088L36.712,19.935L36.712,19.935z"/>
	<path d="M48.026,24.921h-2.525l-0.182-1.148h-1.646l-0.199,1.148h-2.525l2.174-9.047h2.987L48.026,24.921z M45.033,21.868
		l-0.158-1.055c-0.004-0.004-0.012-0.057-0.023-0.158c-0.008-0.086-0.049-0.426-0.123-1.021c-0.008-0.066-0.018-0.157-0.029-0.272
		c-0.011-0.115-0.027-0.261-0.047-0.437l-0.076-0.855c-0.008,0.082-0.019,0.174-0.032,0.275c-0.013,0.101-0.028,0.213-0.044,0.334
		c-0.027,0.242-0.047,0.41-0.059,0.504c-0.012,0.094-0.02,0.15-0.023,0.17l-0.17,1.096l-0.246,1.418H45.033z"/>
	<path d="M53.821,22.167l-0.141,2.452c-0.543,0.202-1.029,0.302-1.459,0.302c-1.013,0-1.863-0.358-2.556-1.075
		c-0.772-0.803-1.16-1.94-1.16-3.412c0-1.376,0.363-2.482,1.091-3.315c0.727-0.83,1.696-1.245,2.911-1.245
		c0.396,0,0.798,0.071,1.207,0.213v2.5c-0.362-0.363-0.735-0.545-1.118-0.545c-0.5,0-0.892,0.211-1.173,0.633
		c-0.28,0.426-0.422,1.015-0.422,1.766c0,0.364,0.035,0.689,0.104,0.976c0.07,0.287,0.172,0.528,0.304,0.726
		c0.131,0.198,0.291,0.349,0.481,0.453c0.191,0.104,0.41,0.157,0.656,0.157C52.972,22.753,53.396,22.558,53.821,22.167z"/>
	<path d="M61.62,24.921h-2.637l-1.623-4.172l0.063,4.172h-2.442v-9.047h2.442l-0.063,3.879l1.44-3.879h2.578l-1.95,4.365
		L61.62,24.921z"/>
</g>
<g enable-background="new    ">
	<path fill="#999999" d="M38.637,75.589V73.27c0.4,0.547,0.833,0.82,1.299,0.82c0.176,0,0.319-0.045,0.43-0.134
		c0.111-0.09,0.166-0.202,0.166-0.337c0-0.195-0.121-0.385-0.361-0.57l-0.332-0.25c-0.221-0.16-0.41-0.319-0.566-0.478
		c-0.156-0.159-0.283-0.322-0.381-0.49s-0.169-0.341-0.215-0.521c-0.045-0.179-0.068-0.367-0.068-0.565
		c0-0.339,0.082-0.693,0.244-1.064c0.082-0.172,0.176-0.33,0.283-0.473c0.107-0.144,0.231-0.27,0.371-0.38
		c0.384-0.313,0.848-0.471,1.392-0.471c0.485,0,0.973,0.125,1.465,0.375v2.262c-0.166-0.257-0.355-0.46-0.566-0.607
		c-0.211-0.148-0.42-0.223-0.625-0.223c-0.156,0-0.285,0.044-0.386,0.132c-0.104,0.085-0.156,0.187-0.156,0.306
		c0,0.194,0.138,0.388,0.415,0.579l0.322,0.23c0.43,0.298,0.737,0.604,0.923,0.918c0.189,0.313,0.283,0.681,0.283,1.102
		c0,0.715-0.226,1.305-0.679,1.77c-0.453,0.464-1.025,0.696-1.719,0.696C39.696,75.897,39.184,75.794,38.637,75.589z"/>
	<path fill="#999999" d="M51.334,75.897h-5.163l2.061-2.727c0.234-0.31,0.432-0.587,0.591-0.831c0.16-0.243,0.285-0.459,0.376-0.646
		c0.18-0.352,0.269-0.713,0.269-1.085c0-0.203-0.043-0.364-0.129-0.483c-0.086-0.12-0.203-0.18-0.352-0.18
		c-0.331,0-0.496,0.306-0.496,0.918c0,0.032,0.001,0.071,0.003,0.117c0.001,0.046,0.004,0.1,0.007,0.161h-1.963l-0.01-0.273
		c0-0.751,0.233-1.356,0.699-1.815c0.469-0.463,1.069-0.694,1.801-0.694c0.705,0,1.281,0.229,1.728,0.688
		c0.45,0.448,0.675,1.033,0.675,1.756c0,0.581-0.152,1.146-0.457,1.694c-0.153,0.274-0.354,0.562-0.599,0.863
		s-0.543,0.619-0.893,0.951c0.302-0.079,0.605-0.135,0.912-0.169c0.306-0.034,0.619-0.051,0.94-0.051V75.897z"/>
</g>
<g enable-background="new    ">
	<path fill="#999999" d="M38.744,146.17h-2.036v-7.539h1.973c0.983,0,1.712,0.2,2.188,0.601c0.56,0.472,0.84,1.128,0.84,1.968
		c0,0.915-0.298,1.597-0.894,2.046c-0.407,0.303-0.991,0.454-1.753,0.454h-0.317V146.17z M38.744,142.112l0.093,0.005
		c0.248,0,0.444-0.076,0.591-0.227c0.146-0.152,0.22-0.359,0.22-0.623c0-0.261-0.072-0.472-0.215-0.635
		c-0.143-0.166-0.326-0.249-0.547-0.249h-0.142V142.112z"/>
	<path fill="#999999" d="M47.528,146.17h-2.104l-0.151-0.957H43.9l-0.166,0.957H41.63l1.812-7.539h2.49L47.528,146.17z
		 M45.033,143.626l-0.132-0.879c-0.003-0.003-0.01-0.047-0.02-0.132c-0.006-0.071-0.041-0.354-0.103-0.85
		c-0.006-0.056-0.015-0.131-0.024-0.227c-0.01-0.097-0.023-0.218-0.039-0.364l-0.063-0.713c-0.006,0.068-0.016,0.145-0.027,0.229
		s-0.023,0.178-0.037,0.278c-0.023,0.202-0.039,0.342-0.049,0.42s-0.016,0.125-0.02,0.142l-0.142,0.913l-0.205,1.182H45.033z"/>
	<path fill="#999999" d="M48.119,146.17v-7.539h1.943l1.021,2.646c0.055,0.156,0.118,0.335,0.188,0.537
		c0.07,0.202,0.147,0.435,0.232,0.698l0.21,0.664c-0.075-0.654-0.132-1.214-0.171-1.68s-0.059-0.856-0.059-1.172v-1.694h1.963v7.539
		h-1.963l-1.087-2.773c-0.114-0.296-0.217-0.574-0.309-0.832c-0.091-0.26-0.172-0.506-0.24-0.74c0.081,0.53,0.141,0.993,0.178,1.387
		c0.038,0.394,0.057,0.739,0.057,1.035v1.924H48.119z"/>
</g>
<g enable-background="new    ">
	<path fill="#999999" d="M38.637,110.694v-2.319c0.4,0.547,0.833,0.82,1.299,0.82c0.176,0,0.319-0.045,0.43-0.134
		c0.111-0.09,0.166-0.202,0.166-0.337c0-0.195-0.121-0.385-0.361-0.57l-0.332-0.25c-0.221-0.16-0.41-0.319-0.566-0.478
		c-0.156-0.159-0.283-0.322-0.381-0.49s-0.169-0.341-0.215-0.521c-0.045-0.179-0.068-0.367-0.068-0.565
		c0-0.339,0.082-0.693,0.244-1.064c0.082-0.172,0.176-0.33,0.283-0.473c0.107-0.144,0.231-0.27,0.371-0.38
		c0.384-0.313,0.848-0.471,1.392-0.471c0.485,0,0.973,0.125,1.465,0.375v2.262c-0.166-0.257-0.355-0.46-0.566-0.607
		c-0.211-0.148-0.42-0.223-0.625-0.223c-0.156,0-0.285,0.044-0.386,0.132c-0.104,0.085-0.156,0.187-0.156,0.306
		c0,0.194,0.138,0.388,0.415,0.579l0.322,0.23c0.43,0.298,0.737,0.604,0.923,0.918c0.189,0.313,0.283,0.681,0.283,1.102
		c0,0.715-0.226,1.305-0.679,1.77c-0.453,0.464-1.025,0.696-1.719,0.696C39.696,111.001,39.184,110.899,38.637,110.694z"/>
	<path fill="#999999" d="M50.209,111.001h-2.036v-5.732h-0.815v-1.807h2.852V111.001z"/>
</g>
<g enable-background="new    ">
	<path fill="#999999" d="M44.75,177.449c0,1.109-0.262,2.012-0.786,2.706c-0.521,0.691-1.2,1.037-2.036,1.037
		c-0.742,0-1.378-0.266-1.909-0.797c-0.667-0.673-1.001-1.682-1.001-3.027c0-1.288,0.348-2.273,1.045-2.956
		c0.518-0.506,1.131-0.759,1.841-0.759c0.869,0,1.561,0.343,2.075,1.027C44.492,175.366,44.75,176.289,44.75,177.449z
		 M42.635,177.465c0-1.337-0.241-2.006-0.723-2.006c-0.241,0-0.433,0.176-0.576,0.526c-0.14,0.326-0.21,0.805-0.21,1.437
		c0,0.622,0.066,1.105,0.198,1.448s0.315,0.515,0.549,0.515c0.241,0,0.426-0.169,0.557-0.508
		C42.567,178.54,42.635,178.069,42.635,177.465z"/>
	<path fill="#999999" d="M45.619,181.192v-7.539h1.943l1.021,2.646c0.055,0.156,0.118,0.335,0.188,0.537
		c0.07,0.202,0.147,0.435,0.232,0.698l0.21,0.664c-0.075-0.654-0.132-1.214-0.171-1.68s-0.059-0.856-0.059-1.172v-1.694h1.963v7.539
		h-1.963l-1.087-2.773c-0.114-0.296-0.217-0.574-0.309-0.832c-0.091-0.26-0.172-0.506-0.24-0.74c0.081,0.53,0.141,0.993,0.178,1.387
		c0.038,0.394,0.057,0.739,0.057,1.035v1.924H45.619z"/>
</g>
</svg>
