<?xml version="1.0" encoding="utf-8"?>
<!-- Generator: Adobe Illustrator 16.0.0, SVG Export Plug-In . SVG Version: 6.00 Build 0)  -->
<!DOCTYPE svg PUBLIC "-//W3C//DTD SVG 1.1//EN" "http://www.w3.org/Graphics/SVG/1.1/DTD/svg11.dtd">
<svg version="1.1"
	 id="svg4541" xmlns:dc="http://purl.org/dc/elements/1.1/" xmlns:cc="http://creativecommons.org/ns#" xmlns:rdf="http://www.w3.org/1999/02/22-rdf-syntax-ns#" xmlns:svg="http://www.w3.org/2000/svg" xmlns:sodipodi="http://sodipodi.sourceforge.net/DTD/sodipodi-0.dtd" xmlns:inkscape="http://www.inkscape.org/namespaces/inkscape" inkscape:version="0.92.2 5c3e80d, 2017-08-06" sodipodi:docname="VCF.svg"
	 xmlns="http://www.w3.org/2000/svg" xmlns:xlink="http://www.w3.org/1999/xlink" x="0px" y="0px" width="120.18px" height="380px"
	 viewBox="0 0 120.18 380" enable-background="new 0 0 120.18 380" xml:space="preserve">
<sodipodi:namedview  units="px" fit-margin-left="0" fit-margin-top="0" showgrid="false" inkscape:cy="138.75941" inkscape:cx="-12.284485" inkscape:zoom="1.979899" borderopacity="1.0" bordercolor="#666666" pagecolor="#ffffff" id="base" fit-margin-bottom="0" inkscape:pageshadow="2" inkscape:window-y="18" inkscape:window-x="0" inkscape:window-height="1422" fit-margin-right="0" inkscape:pageopacity="0.0" inkscape:window-width="2560" inkscape:document-units="mm" inkscape:current-layer="g13178" inkscape:window-maximized="0">
	</sodipodi:namedview>
<g>
	<path fill="#E6E6E6" d="M-7.591,0.042h135.569v379.917H-7.591V0.042z"/>
</g>
<g>
	<path stroke="#231F20" stroke-width="0.25" stroke-miterlimit="10" d="M60.129,366.671c-0.378,0.168-1.092,0.31-1.899,0.31
		c-2.22,0-3.635-1.347-3.635-3.502c0-2.004,1.373-3.644,3.929-3.644c0.562,0,1.178,0.101,1.625,0.269l-0.336,1.582
		c-0.259-0.104-0.637-0.211-1.19-0.211c-1.12,0-1.85,0.799-1.835,1.92c0,1.26,0.841,1.92,1.877,1.92c0.505,0,0.896-0.086,1.22-0.211
		L60.129,366.671z"/>
	<path stroke="#231F20" stroke-width="0.25" stroke-miterlimit="10" d="M62.045,361.066h1.272l0.042-0.447
		c0.105-0.938,0.632-3.039,3.04-3.039c0.479,0,0.911,0.098,1.163,0.225l-0.336,1.514c-0.169-0.062-0.396-0.127-0.659-0.127
		c-0.699,0-1.035,0.506-1.119,1.271l-0.085,0.604h1.431v1.482H65.19l-0.312,2.493c-0.211,1.709-0.785,3.063-2.771,3.063
		c-0.575-0.015-1.064-0.125-1.274-0.234l0.294-1.48c0.21,0.084,0.438,0.108,0.659,0.108c0.699-0.019,0.938-0.396,1.14-1.985
		l0.229-1.965H62.05v-1.482H62.045L62.045,361.066z"/>
</g>
</svg>
