<?xml version="1.0" encoding="utf-8"?>
<!-- Generator: Adobe Illustrator 16.0.0, SVG Export Plug-In . SVG Version: 6.00 Build 0)  -->
<!DOCTYPE svg PUBLIC "-//W3C//DTD SVG 1.1//EN" "http://www.w3.org/Graphics/SVG/1.1/DTD/svg11.dtd">
<svg version="1.1"
	 id="svg4541" xmlns:sodipodi="http://sodipodi.sourceforge.net/DTD/sodipodi-0.dtd" xmlns:inkscape="http://www.inkscape.org/namespaces/inkscape" xmlns:dc="http://purl.org/dc/elements/1.1/" xmlns:cc="http://creativecommons.org/ns#" xmlns:rdf="http://www.w3.org/1999/02/22-rdf-syntax-ns#" xmlns:svg="http://www.w3.org/2000/svg" inkscape:version="0.92.2 5c3e80d, 2017-08-06" sodipodi:docname="VCA.svg"
	 xmlns="http://www.w3.org/2000/svg" xmlns:xlink="http://www.w3.org/1999/xlink" x="0px" y="0px" width="180.771px"
	 height="380.912px" viewBox="-45.567 -0.5 180.771 380.912" enable-background="new -45.567 -0.5 180.771 380.912"
	 xml:space="preserve">
<path id="path33453" fill="#E6E6E6" stroke="#595A5A" stroke-miterlimit="10" d="M-45.067,0h179.771v379.912H-45.067V0z"/>
<sodipodi:namedview  id="base" pagecolor="#ffffff" bordercolor="#666666" borderopacity="1.0" inkscape:zoom="0.49497475" inkscape:cx="-640.37084" inkscape:cy="-87.479401" showgrid="false" fit-margin-top="0" fit-margin-left="0" fit-margin-bottom="0" inkscape:window-width="2560" inkscape:document-units="mm" fit-margin-right="0" inkscape:pageshadow="2" inkscape:current-layer="g13224" inkscape:pageopacity="0.0" inkscape:window-x="0" inkscape:window-height="1422" inkscape:window-y="18" inkscape:window-maximized="0" units="px">
	</sodipodi:namedview>
<g>
	<path stroke="#231F20" stroke-width="0.25" stroke-miterlimit="10" d="M44.021,367.67c-0.378,0.168-1.092,0.31-1.903,0.31
		c-2.215,0-3.63-1.347-3.63-3.502c0-2.004,1.373-3.644,3.924-3.644c0.562,0,1.177,0.101,1.625,0.269l-0.336,1.582
		c-0.254-0.104-0.632-0.211-1.189-0.211c-1.121,0-1.85,0.799-1.836,1.92c0,1.26,0.841,1.92,1.878,1.92
		c0.504,0,0.896-0.086,1.219-0.211L44.021,367.67z"/>
	<path stroke="#231F20" stroke-width="0.25" stroke-miterlimit="10" d="M45.937,362.065h1.273l0.042-0.447
		c0.109-0.938,0.63-3.039,3.039-3.039c0.478,0,0.911,0.098,1.163,0.225l-0.336,1.514c-0.169-0.062-0.396-0.127-0.659-0.127
		c-0.7,0-1.036,0.508-1.12,1.271l-0.084,0.604h1.43v1.479H49.08l-0.312,2.493c-0.211,1.709-0.785,3.062-2.771,3.062
		c-0.575-0.018-1.064-0.125-1.274-0.231l0.294-1.479c0.21,0.084,0.436,0.105,0.658,0.105c0.7-0.021,0.938-0.396,1.14-1.982
		l0.229-1.968H45.94v-1.479H45.937L45.937,362.065L45.937,362.065z"/>
</g>
<g>
	<path stroke="#000000" stroke-width="1.5" stroke-miterlimit="10" d="M36.533-28.489c-0.057-1.034-0.121-2.277-0.11-3.202H36.39
		c-0.254,0.869-0.562,1.793-0.937,2.816l-1.312,3.598h-0.727l-1.199-3.532c-0.353-1.045-0.648-2.002-0.857-2.882h-0.021
		c-0.021,0.924-0.076,2.167-0.146,3.278l-0.196,3.18h-0.913l0.519-7.415h1.223l1.266,3.586c0.309,0.913,0.562,1.729,0.748,2.498
		h0.033c0.188-0.748,0.449-1.562,0.779-2.498l1.32-3.586h1.221l0.462,7.415H36.72L36.533-28.489z"/>
	<path stroke="#000000" stroke-width="1.5" stroke-miterlimit="10" d="M45.464-29.017c0,2.553-1.551,3.906-3.442,3.906
		c-1.958,0-3.333-1.518-3.333-3.763c0-2.354,1.463-3.895,3.442-3.895C44.156-32.768,45.464-31.217,45.464-29.017z M39.71-28.896
		c0,1.584,0.856,3.003,2.365,3.003c1.52,0,2.377-1.397,2.377-3.081c0-1.474-0.771-3.014-2.365-3.014
		C40.502-31.987,39.71-30.524,39.71-28.896z"/>
	<path stroke="#000000" stroke-width="1.5" stroke-miterlimit="10" d="M46.706-25.232v-7.415h1.045l2.377,3.751
		c0.552,0.869,0.979,1.65,1.331,2.409l0.021-0.011c-0.088-0.99-0.104-1.892-0.104-3.047v-3.103h0.896v7.416h-0.969l-2.354-3.763
		c-0.521-0.825-1.015-1.672-1.39-2.475l-0.033,0.011c0.059,0.935,0.078,1.826,0.078,3.059v3.168H46.706z"/>
	<path stroke="#000000" stroke-width="1.5" stroke-miterlimit="10" d="M60.28-29.017c0,2.553-1.551,3.906-3.44,3.906
		c-1.958,0-3.333-1.518-3.333-3.763c0-2.354,1.464-3.895,3.441-3.895C58.974-32.768,60.28-31.217,60.28-29.017z M54.526-28.896
		c0,1.584,0.854,3.003,2.365,3.003c1.521,0,2.377-1.397,2.377-3.081c0-1.474-0.771-3.014-2.365-3.014
		C55.319-31.987,54.526-30.524,54.526-28.896z"/>
</g>
<line fill="none" x1="45.068" y1="0" x2="45.068" y2="379.912"/>
<g>
	<path fill="#CFD1D3" d="M-29.535-41.066v-45.262h4.642l2.438,15.89c0.132,0.938,0.282,2.013,0.449,3.224
		c0.167,1.213,0.353,2.61,0.554,4.192l0.501,3.985c-0.179-3.927-0.314-7.285-0.407-10.083c-0.094-2.795-0.141-5.14-0.141-7.035
		v-10.173h4.688v45.262H-21.5l-2.597-16.649c-0.271-1.781-0.517-3.447-0.734-5c-0.218-1.551-0.41-3.034-0.574-4.44
		c0.193,3.188,0.335,5.964,0.426,8.327c0.09,2.364,0.134,4.436,0.134,6.215v11.55h-4.688L-29.535-41.066L-29.535-41.066z"/>
	<path fill="#CFD1D3" d="M-0.356-86.328h4.862v31.462c0,2.633-0.167,4.763-0.501,6.395c-0.326,1.709-0.871,3.255-1.633,4.642
		c-1.025,1.842-2.273,2.764-3.743,2.764c-1.664,0-3.06-1.019-4.188-3.052c-1.43-2.593-2.146-6.743-2.146-12.448v-29.763h4.863
		v29.024c0,1.959,0.095,3.35,0.285,4.166c0.19,0.818,0.512,1.227,0.963,1.227c0.466,0,0.788-0.381,0.968-1.139
		c0.18-0.796,0.27-2.204,0.27-4.225V-86.328L-0.356-86.328z"/>
	<path fill="#CFD1D3" d="M32.031-41.066H27.11l-0.197-20.638l-0.158-8.238c-0.058,1.582-0.121,3.095-0.193,4.53
		c-0.073,1.437-0.162,2.829-0.268,4.18l-1.591,20.166h-4.041l-1.307-20.197c-0.078-1.17-0.184-3.186-0.314-6.037
		c-0.017-0.431-0.05-1.31-0.104-2.638l-0.117,8.354l-0.432,20.52h-5.179l2.1-45.262h6.053l1.015,15.245
		c0.086,1.246,0.162,2.608,0.229,4.073c0.065,1.465,0.126,3.059,0.182,4.779c0.099-2.874,0.235-5.442,0.41-7.71l1.209-16.388h5.878
		L32.031-41.066z"/>
	<path fill="#CFD1D3" d="M40.99-41.066v-45.262h5.655c2.114,0,3.683,1.174,4.7,3.517c1.033,2.407,1.551,5.511,1.551,9.32
		c0,5.67-1.12,8.74-3.357,9.204c1.274,0.474,2.209,1.526,2.804,3.167c0.596,1.642,0.893,4.006,0.893,7.092
		c0,3.891-0.501,7.02-1.504,9.385c-0.995,2.385-2.306,3.575-3.931,3.575H40.99V-41.066z M45.853-69.091h0.327
		c0.583,0,1.043-0.345,1.382-1.025c0.338-0.686,0.507-1.642,0.507-2.874c0-2.619-0.57-3.93-1.714-3.93
		c-0.056,0-0.123,0.005-0.204,0.017c-0.081,0.009-0.181,0.022-0.297,0.045L45.853-69.091L45.853-69.091z M45.853-50.656
		c0.093,0.021,0.175,0.034,0.245,0.046c0.069,0.011,0.129,0.016,0.175,0.016c0.605,0,1.09-0.413,1.452-1.235
		c0.361-0.82,0.542-1.925,0.542-3.31c0-1.386-0.182-2.468-0.542-3.25c-0.361-0.782-0.856-1.175-1.486-1.175h-0.385L45.853-50.656
		L45.853-50.656z"/>
	<path fill="#CFD1D3" d="M61.949-41.066v-45.262h9.037v10.847h-4.175v5.773h3.744v10.847h-3.744v6.95h4.175v10.845H61.949z"/>
	<path fill="#CFD1D3" d="M92.505-41.066h-5.26l-2.402-16.122c-0.022-0.275-0.063-0.634-0.121-1.087
		c-0.06-0.448-0.131-0.987-0.217-1.611l0.035,2.989v15.829h-4.839v-45.26h4.979c2.191,0,3.833,1.086,4.922,3.255
		c1.383,2.774,2.076,6.722,2.076,11.844c0,5.471-0.931,9.251-2.788,11.343L92.505-41.066z M84.563-66.013h0.327
		c0.561,0,1.025-0.539,1.398-1.611c0.374-1.078,0.561-2.444,0.561-4.105c0-3.381-0.704-5.072-2.11-5.072h-0.175L84.563-66.013
		L84.563-66.013z"/>
	<path fill="#CFD1D3" d="M119.775-41.066h-12.329l4.923-16.37c0.561-1.859,1.028-3.521,1.409-4.986
		c0.382-1.463,0.683-2.757,0.897-3.882c0.429-2.109,0.642-4.283,0.642-6.512c0-1.223-0.104-2.191-0.308-2.908
		c-0.205-0.72-0.485-1.075-0.842-1.075c-0.789,0-1.185,1.837-1.185,5.512c0,0.195,0.002,0.43,0.007,0.703
		c0.004,0.274,0.01,0.597,0.018,0.969h-4.688l-0.021-1.643c0-4.507,0.558-8.143,1.669-10.899c1.12-2.777,2.555-4.168,4.303-4.168
		c1.685,0,3.06,1.375,4.126,4.125c1.072,2.693,1.609,6.21,1.609,10.548c0,3.487-0.362,6.875-1.091,10.168
		c-0.368,1.646-0.846,3.373-1.432,5.188c-0.586,1.81-1.296,3.713-2.131,5.707c0.72-0.473,1.444-0.812,2.178-1.012
		c0.729-0.205,1.479-0.305,2.245-0.305V-41.066z"/>
</g>
<circle stroke="#000000" stroke-width="2" stroke-miterlimit="10" cx="112.014" cy="18.365" r="12.861"/>
<path fill="#CFD1D3" d="M104.743,70.179H73.511l12.47-16.494c1.42-1.875,2.605-3.549,3.57-5.025
	c0.967-1.475,1.729-2.779,2.273-3.912c1.087-2.129,1.626-4.316,1.626-6.564c0-1.23-0.266-2.209-0.779-2.93
	c-0.52-0.725-1.231-1.084-2.133-1.084c-1.999,0-3,1.852-3,5.555c0,0.197,0.004,0.432,0.018,0.709c0.01,0.275,0.023,0.6,0.043,0.975
	H75.726l-0.055-1.654c0-4.541,1.412-8.205,4.227-10.982c2.837-2.799,6.472-4.201,10.9-4.201c4.268,0,7.75,1.385,10.452,4.158
	c2.716,2.711,4.077,6.256,4.077,10.629c0,3.514-0.918,6.928-2.764,10.246c-0.933,1.66-2.142,3.4-3.626,5.225
	c-1.484,1.826-3.283,3.742-5.398,5.756c1.824-0.479,3.66-0.82,5.518-1.023c1.848-0.205,3.747-0.307,5.687-0.307V70.179z"/>
<path fill="#232C36" stroke="#231F20" stroke-width="2" stroke-miterlimit="10" d="M126.754,213.586c0,0.94-0.771,1.703-1.696,1.703
	H53.94c-0.938,0-1.698-0.763-1.698-1.703V64.623c0-0.94,0.761-1.702,1.698-1.702h71.116c0.938,0,1.688,0.762,1.688,1.702
	L126.754,213.586L126.754,213.586z"/>
<path fill="#CFD1D3" d="M-15.896,69.665V24.431h11.66L1.887,40.31c0.332,0.938,0.708,2.012,1.128,3.223s0.883,2.607,1.396,4.189
	l1.26,3.984c-0.45-3.926-0.791-7.285-1.025-10.078c-0.229-2.793-0.352-5.137-0.352-7.031V24.431h11.772v45.234H4.291l-6.522-16.641
	c-0.683-1.777-1.299-3.442-1.848-4.995c-0.549-1.553-1.03-3.032-1.444-4.438c0.487,3.184,0.848,5.957,1.068,8.32
	c0.225,2.363,0.338,4.434,0.338,6.211v11.543H-15.896z"/>
<path fill="#232C36" stroke="#231F20" stroke-width="2" stroke-miterlimit="10" d="M37.699,213.586c0,0.94-0.771,1.703-1.697,1.703
	h-71.12c-0.938,0-1.698-0.763-1.698-1.703V64.623c0-0.94,0.761-1.702,1.698-1.702H36c0.938,0,1.688,0.762,1.688,1.702
	L37.699,213.586L37.699,213.586z"/>
<circle stroke="#000000" stroke-width="2" stroke-miterlimit="10" cx="22.956" cy="18.365" r="12.861"/>
</svg>
