<?xml version="1.0" encoding="utf-8"?>
<!-- Generator: Adobe Illustrator 16.0.0, SVG Export Plug-In . SVG Version: 6.00 Build 0)  -->
<!DOCTYPE svg PUBLIC "-//W3C//DTD SVG 1.1//EN" "http://www.w3.org/Graphics/SVG/1.1/DTD/svg11.dtd">
<svg version="1.1"
	 id="svg12553" xmlns:inkscape="http://www.inkscape.org/namespaces/inkscape" xmlns:dc="http://purl.org/dc/elements/1.1/" xmlns:rdf="http://www.w3.org/1999/02/22-rdf-syntax-ns#" xmlns:cc="http://creativecommons.org/ns#" xmlns:svg="http://www.w3.org/2000/svg" xmlns:sodipodi="http://sodipodi.sourceforge.net/DTD/sodipodi-0.dtd" inkscape:version="0.92.2 5c3e80d, 2017-08-06" sodipodi:docname="SEQ3.svg"
	 xmlns="http://www.w3.org/2000/svg" xmlns:xlink="http://www.w3.org/1999/xlink" x="0px" y="0px" width="25.217px"
	 height="52.143px" viewBox="2.847 4.313 25.217 52.143" enable-background="new 2.847 4.313 25.217 52.143" xml:space="preserve">
<rect x="10.904" y="4.602" fill="#FFFFFF" width="25.135" height="51.854"/>
<g>
	<path fill="#4F4F4F" d="M10.904,30.256c0-1.812,0-3.627,0-5.44c0.183,0.009,0.365,0.017,0.546,0.024
		c-0.011,0.09-0.021,0.179-0.031,0.268c-0.413,0.995-0.184,2.042-0.247,3.063c-0.059,0.926,0.34,1.318,1.286,1.316
		c7.1-0.019,14.2-0.016,21.301-0.003c0.861,0.001,1.279-0.338,1.246-1.224c-0.039-1.073-0.045-2.148-0.065-3.225
		c0.317-0.016,0.664-0.104,0.694-0.443c0.102-1.167,0.461-2.379-0.418-3.431c0.681-1.429,0.363-2.91,0.195-4.375
		c-0.016-0.146-0.312-0.259-0.477-0.387c0.016-0.125,0.031-0.249,0.049-0.374c0.999-0.559,0.624-1.301,0.273-2.04
		c0.043-0.735-0.51-0.703-0.969-0.704c-7.373-0.01-14.747-0.008-22.12-0.006c-0.489,0-0.975,0.032-1.044,0.685
		c-0.077,0.016-0.15,0.004-0.221-0.029c0-1.729,0-3.455,0-5.184c7.649-0.002,15.299-0.019,22.95,0.009
		c1.16,0.004,1.857-0.272,1.65-1.591c0.006-0.075,0.01-0.149,0.014-0.225c0.011-0.159,0.021-0.318,0.033-0.478
		c0.113-0.231,0.182-0.502,0.488-0.565c0,8.12,0,16.239,0,24.357C27.66,30.256,19.282,30.256,10.904,30.256z"/>
	<path fill="#333333" d="M10.904,54.875c0-2.073,0-4.146,0-6.22c3.188,0.004,6.377,0.018,9.567,0.009
		c4.999-0.012,9.997-0.039,14.995-0.061c0.513,2.024,0.471,4.053,0.02,6.081c-7.595-0.011-15.189-0.024-22.786-0.02
		C12.102,54.666,11.503,54.802,10.904,54.875z"/>
	<path fill="#1A1A1A" d="M34.936,16.4c0.165,0.128,0.461,0.242,0.478,0.387c0.166,1.465,0.483,2.945-0.195,4.375
		c-0.063-0.005-0.127,0-0.189,0.015c-0.555-0.035-1.109-0.104-1.666-0.104c-6.229-0.008-12.458-0.01-18.687,0
		c-1.2,0.001-2.401,0.06-3.601,0.092c-0.058-0.004-0.115,0.004-0.17,0.022c0-1.556,0-3.109,0-4.665
		c0.723-0.038,1.445-0.107,2.168-0.109C20.361,16.402,27.648,16.402,34.936,16.4z"/>
	<path fill="#808080" d="M10.904,45.287c0-1.555,0-3.11,0-4.665c8.204,0.002,16.409,0.003,24.614,0.004
		c0.012,0.86,0.032,1.721,0.032,2.579c0.004,2.005,0,2.008-1.946,2.01c-2.709,0.002-5.418-0.008-8.127,0.002
		C20.62,45.234,15.761,45.263,10.904,45.287z"/>
	<path fill="#333333" d="M10.904,36.994c0-0.173,0-0.346,0-0.519c0.43-0.719,0.297-1.519,0.249-2.271
		c-0.083-1.247,0.424-1.646,1.647-1.634c4.773,0.05,9.548,0.02,14.323,0.02c2.193,0,4.389,0.022,6.582-0.006
		c0.93-0.012,1.342,0.361,1.307,1.301c-0.038,0.988-0.016,1.979-0.02,2.969c-7.436,0.005-14.87,0.007-22.305,0.019
		c-0.555,0.001-1.11,0.068-1.664,0.105L10.904,36.994z"/>
	<path fill="#333333" d="M35.028,21.177c0.062-0.015,0.126-0.02,0.188-0.015c0.879,1.051,0.52,2.264,0.418,3.431
		c-0.03,0.341-0.377,0.429-0.694,0.443l-0.006-0.001c-0.431-0.282-0.917-0.195-1.384-0.195c-7.366-0.004-14.733-0.001-22.1,0
		c-0.183-0.008-0.364-0.017-0.546-0.024c0-1.209,0-2.418,0-3.628c0.055-0.02,0.112-0.026,0.17-0.022
		c0.34,0.484,0.856,0.327,1.307,0.328c7.112,0.01,14.225,0.01,21.337,0C34.166,21.49,34.685,21.661,35.028,21.177z"/>
	<path fill="#656565" d="M10.904,36.994c0,0,0.119-0.018,0.119-0.019c0.422,0.247,0.885,0.312,1.366,0.312
		c7.659-0.014,15.317-0.023,22.978-0.036c0.296,1.021,0.111,2.066,0.148,3.102c-8.204,0.004-16.408,0.008-24.612,0.012
		C10.904,39.24,10.904,38.117,10.904,36.994z"/>
	<path fill="#4F4F4F" d="M35.516,40.352c-0.037-1.034,0.146-2.079-0.149-3.102c-0.126-0.133-0.25-0.266-0.374-0.397
		c0.005-0.989-0.02-1.979,0.019-2.969c0.037-0.938-0.375-1.312-1.307-1.301c-2.193,0.028-4.388,0.006-6.58,0.006
		c-4.775,0-9.551,0.03-14.324-0.02c-1.222-0.013-1.729,0.387-1.647,1.634c0.051,0.754,0.183,1.554-0.249,2.271
		c0-1.556,0-3.109,0-4.664c5.998-0.017,11.997-0.038,17.995-0.044c2.381-0.003,4.762,0.027,7.141,0.044c0,7.945,0,15.894,0,23.841
		c-0.185-0.322-0.369-0.646-0.554-0.967c0.451-2.029,0.493-4.058-0.019-6.082c-0.182-0.863-0.889-0.527-1.364-0.529
		c-6.103-0.025-12.206-0.022-18.31-0.014c-1.63,0.003-3.26,0.05-4.889,0.075c0-0.259,0-0.518,0-0.776
		c7.795,0.009,15.592,0.017,23.391,0.029c0.715,0.002,1.268-0.086,1.252-1.029c-0.017-0.963-0.664-0.843-1.252-0.842
		c-7.797,0.006-15.596,0.018-23.391,0.027c0-0.087,0-0.173,0-0.259c4.857-0.023,9.714-0.053,14.573-0.07
		c2.709-0.01,5.418,0,8.127-0.002c1.945-0.002,1.949-0.005,1.947-2.01c-0.002-0.858-0.021-1.719-0.033-2.579
		C35.517,40.535,35.517,40.443,35.516,40.352z"/>
	<path fill="#656565" d="M35.55,6.464c-0.01,0.159-0.021,0.317-0.032,0.478c-0.048,0.073-0.052,0.147-0.013,0.225
		c0.205,1.318-0.492,1.595-1.651,1.591c-7.649-0.027-15.301-0.011-22.95-0.009c0-0.776,0-1.555,0-2.333
		C19.12,6.432,27.335,6.448,35.55,6.464z"/>
	<path fill="#808080" d="M35.55,6.464C27.335,6.448,19.12,6.432,10.904,6.416c0-0.604,0-1.209,0-1.813
		c0.086-0.086,0.172-0.173,0.259-0.26c8.118,0,16.237,0,24.357,0c0.07,0.274,0.205,0.485,0.518,0.519c0,0.345,0,0.69,0,1.037
		C35.733,5.962,35.664,6.232,35.55,6.464z"/>
	<path fill="#1A1A1A" d="M10.904,13.931c0.07,0.034,0.144,0.045,0.221,0.029c8.044,0.009,16.087,0.018,24.132,0.025
		c0.352,0.739,0.727,1.481-0.272,2.04c-0.774-0.031-1.549-0.091-2.323-0.09c-7.253,0.017-14.506,0.043-21.756,0.066
		C10.904,15.312,10.904,14.622,10.904,13.931z"/>
	<path fill="#808080" d="M10.904,45.546c7.795-0.011,15.593-0.021,23.39-0.027c0.588-0.001,1.236-0.121,1.252,0.842
		c0.017,0.944-0.537,1.031-1.252,1.029c-7.797-0.014-15.595-0.021-23.39-0.029C10.904,46.755,10.904,46.15,10.904,45.546z"/>
	<path fill="#DBDBDB" d="M36.039,31.812c-2.38-0.017-4.76-0.047-7.141-0.044c-5.998,0.006-11.997,0.027-17.995,0.044
		c0-0.52,0-1.036,0-1.557c8.377,0,16.755,0,25.135,0C36.039,30.775,36.039,31.293,36.039,31.812z"/>
	<path fill="#808080" d="M35.261,56.43c-7.776,0-15.554-0.021-23.331,0.025c-0.895,0.005-1.215-0.191-1.026-1.062
		c7.621,0.001,15.243-0.004,22.865,0.014c0.607,0,1.326-0.236,1.744,0.497C35.429,56.079,35.345,56.254,35.261,56.43z"/>
	<path fill="#656565" d="M35.513,55.903c-0.418-0.733-1.137-0.497-1.744-0.497c-7.622-0.018-15.244-0.013-22.865-0.014
		c0-0.174,0-0.347,0-0.519c0.599-0.073,1.198-0.209,1.795-0.209c7.596-0.006,15.191,0.009,22.786,0.02
		c0.185,0.322,0.369,0.646,0.554,0.968c0,0.086,0,0.172,0,0.259C35.864,55.908,35.688,55.906,35.513,55.903z"/>
	<path fill="#808080" d="M10.904,48.137c1.629-0.026,3.259-0.073,4.889-0.076c6.104-0.01,12.206-0.013,18.31,0.014
		c0.477,0.002,1.184-0.334,1.363,0.529c-4.998,0.021-9.996,0.049-14.995,0.061c-3.189,0.009-6.379-0.005-9.567-0.009
		C10.904,48.482,10.904,48.31,10.904,48.137z"/>
	<path fill="#808080" d="M10.904,16.004c7.25-0.023,14.503-0.051,21.757-0.066c0.773-0.001,1.549,0.059,2.322,0.09
		c-0.018,0.125-0.033,0.249-0.049,0.374c-7.288,0.002-14.575,0.002-21.863,0.013c-0.723,0.001-1.445,0.071-2.168,0.109
		C10.904,16.349,10.904,16.177,10.904,16.004z"/>
	<path fill="#333333" d="M35.516,40.352c0.001,0.092,0.001,0.184,0.002,0.273c-8.205-0.001-16.41-0.002-24.614-0.004
		c0-0.087,0-0.173,0-0.259C19.108,40.359,27.312,40.355,35.516,40.352z"/>
	<path fill="#4F4F4F" d="M35.513,55.903c0.175,0.003,0.351,0.005,0.525,0.008c0.159,0.8-0.447,0.45-0.777,0.52
		C35.345,56.254,35.429,56.079,35.513,55.903z"/>
	<path fill="#DBDBDB" d="M36.039,4.861c-0.312-0.033-0.447-0.244-0.518-0.519C35.97,4.239,36.143,4.412,36.039,4.861z"/>
	<path fill="#656565" d="M11.164,4.343c-0.086,0.087-0.172,0.174-0.259,0.26C10.854,4.379,10.94,4.292,11.164,4.343z"/>
	<path fill="#333333" d="M34.94,25.036c0.021,1.075,0.026,2.15,0.065,3.225c0.033,0.886-0.385,1.226-1.246,1.224
		c-7.102-0.012-14.201-0.016-21.301,0.003c-0.946,0.002-1.343-0.391-1.286-1.316c0.063-1.022-0.166-2.068,0.247-3.063
		c1.851-0.003,3.704-0.003,5.556-0.009c5.985-0.021,11.972-0.042,17.958-0.063L34.94,25.036z"/>
	<path fill="#808080" d="M35.257,13.986c-8.045-0.008-16.088-0.018-24.132-0.025c0.069-0.651,0.557-0.685,1.044-0.685
		c7.373-0.002,14.746-0.004,22.119,0.006C34.748,13.283,35.3,13.251,35.257,13.986z"/>
	<path fill="#808080" d="M34.934,25.035c-5.986,0.021-11.974,0.043-17.958,0.063c-1.852,0.006-3.705,0.006-5.556,0.009
		c0.01-0.089,0.021-0.178,0.031-0.268c7.366-0.001,14.732-0.004,22.099,0C34.017,24.84,34.503,24.752,34.934,25.035z"/>
	<path fill="#808080" d="M35.505,7.166c-0.039-0.077-0.035-0.151,0.013-0.225C35.513,7.016,35.509,7.091,35.505,7.166z"/>
	<path fill="#808080" d="M35.028,21.177c-0.343,0.484-0.86,0.313-1.31,0.314c-7.112,0.011-14.226,0.011-21.337,0
		c-0.45,0-0.965,0.157-1.307-0.328c1.2-0.032,2.4-0.091,3.601-0.092c6.229-0.009,12.457-0.007,18.687,0
		C33.917,21.073,34.473,21.141,35.028,21.177z"/>
	<path fill="#808080" d="M34.993,36.853c0.124,0.133,0.248,0.266,0.374,0.397c-7.658,0.013-15.317,0.022-22.977,0.036
		c-0.48,0-0.943-0.063-1.366-0.312c0.555-0.036,1.109-0.104,1.664-0.104C20.123,36.859,27.557,36.857,34.993,36.853z"/>
</g>
</svg>
