<?xml version="1.0" encoding="utf-8"?>
<!-- Generator: Adobe Illustrator 16.0.0, SVG Export Plug-In . SVG Version: 6.00 Build 0)  -->
<!DOCTYPE svg PUBLIC "-//W3C//DTD SVG 1.1//EN" "http://www.w3.org/Graphics/SVG/1.1/DTD/svg11.dtd">
<svg version="1.1"
	 id="svg12553" xmlns:inkscape="http://www.inkscape.org/namespaces/inkscape" xmlns:dc="http://purl.org/dc/elements/1.1/" xmlns:rdf="http://www.w3.org/1999/02/22-rdf-syntax-ns#" xmlns:cc="http://creativecommons.org/ns#" xmlns:svg="http://www.w3.org/2000/svg" xmlns:sodipodi="http://sodipodi.sourceforge.net/DTD/sodipodi-0.dtd" sodipodi:docname="SEQ3.svg" inkscape:version="0.92.2 5c3e80d, 2017-08-06"
	 xmlns="http://www.w3.org/2000/svg" xmlns:xlink="http://www.w3.org/1999/xlink" x="0px" y="0px" width="25.217px"
	 height="52.143px" viewBox="10.852 4.313 25.217 52.143" enable-background="new 10.852 4.313 25.217 52.143" xml:space="preserve"
	>
<rect x="16.908" y="4.602" fill="#FFFFFF" width="25.137" height="51.854"/>
<path fill="#AEAEAE" d="M16.908,30.256c0-1.812,0-3.627,0-5.44c0.184,0.01,0.366,0.018,0.547,0.024
	c-0.011,0.09-0.021,0.179-0.031,0.268c-0.413,0.995-0.184,2.042-0.247,3.063c-0.059,0.926,0.341,1.318,1.287,1.315
	c7.1-0.019,14.2-0.016,21.301-0.003c0.861,0.001,1.279-0.338,1.246-1.224c-0.039-1.073-0.045-2.148-0.064-3.225
	c0.316-0.017,0.664-0.104,0.693-0.443c0.102-1.167,0.461-2.379-0.418-3.431c0.682-1.43,0.363-2.91,0.195-4.375
	c-0.016-0.146-0.312-0.26-0.477-0.388c0.016-0.125,0.03-0.249,0.049-0.374c0.998-0.559,0.623-1.301,0.272-2.04
	c0.043-0.734-0.51-0.702-0.969-0.703c-7.373-0.011-14.747-0.009-22.12-0.007c-0.489,0-0.976,0.032-1.045,0.686
	c-0.077,0.016-0.15,0.004-0.222-0.029c0-1.729,0-3.455,0-5.184c7.65-0.002,15.301-0.02,22.952,0.009
	c1.16,0.004,1.856-0.272,1.649-1.591c0.006-0.075,0.011-0.149,0.015-0.226c0.01-0.158,0.021-0.317,0.032-0.478
	c0.113-0.231,0.183-0.502,0.488-0.565c0,8.12,0,16.239,0,24.357C33.666,30.256,25.288,30.256,16.908,30.256z"/>
<path fill="#9E9E9E" d="M16.908,54.875c0-2.073,0-4.146,0-6.22c3.189,0.004,6.378,0.018,9.569,0.009
	c4.998-0.013,9.996-0.039,14.994-0.062c0.514,2.024,0.471,4.054,0.02,6.081c-7.594-0.011-15.188-0.023-22.785-0.02
	C18.107,54.666,17.508,54.802,16.908,54.875z"/>
<path fill="#8F8F8F" d="M40.942,16.4c0.164,0.128,0.461,0.242,0.478,0.388c0.166,1.465,0.483,2.944-0.194,4.375
	c-0.064-0.005-0.128,0-0.189,0.015c-0.555-0.035-1.109-0.104-1.666-0.104c-6.229-0.009-12.459-0.011-18.688,0
	c-1.199,0.001-2.401,0.06-3.602,0.092c-0.059-0.004-0.115,0.004-0.171,0.021c0-1.556,0-3.108,0-4.665
	c0.724-0.038,1.446-0.106,2.17-0.108C26.366,16.402,33.653,16.402,40.942,16.4z"/>
<path fill="#CACACA" d="M16.908,45.287c0-1.556,0-3.11,0-4.665c8.206,0.002,16.411,0.003,24.616,0.004
	c0.012,0.859,0.031,1.721,0.031,2.579c0.004,2.005,0,2.008-1.945,2.01c-2.709,0.002-5.418-0.008-8.127,0.002
	C26.626,45.234,21.767,45.263,16.908,45.287z"/>
<path fill="#9E9E9E" d="M16.908,36.994c0-0.174,0-0.347,0-0.52c0.431-0.719,0.298-1.519,0.25-2.271
	c-0.084-1.247,0.424-1.646,1.647-1.635c4.773,0.051,9.549,0.021,14.323,0.021c2.192,0,4.39,0.021,6.582-0.006
	c0.93-0.012,1.342,0.36,1.308,1.301c-0.039,0.988-0.017,1.979-0.021,2.969c-7.437,0.005-14.87,0.007-22.306,0.02
	c-0.555,0.001-1.11,0.067-1.665,0.104L16.908,36.994z"/>
<path fill="#9E9E9E" d="M41.034,21.177c0.062-0.015,0.125-0.02,0.188-0.015c0.879,1.051,0.52,2.264,0.418,3.431
	c-0.029,0.341-0.377,0.429-0.693,0.443l-0.006-0.001c-0.432-0.282-0.918-0.195-1.385-0.195c-7.365-0.004-14.732-0.001-22.101,0
	c-0.183-0.008-0.364-0.017-0.547-0.024c0-1.209,0-2.418,0-3.628c0.056-0.02,0.112-0.025,0.171-0.021
	c0.34,0.483,0.856,0.327,1.308,0.328c7.112,0.01,14.226,0.01,21.337,0C40.172,21.49,40.69,21.661,41.034,21.177z"/>
<path fill="#BBBBBB" d="M16.908,36.994c0,0,0.119-0.019,0.119-0.02c0.423,0.247,0.886,0.312,1.367,0.312
	c7.659-0.015,15.317-0.023,22.979-0.036c0.296,1.021,0.11,2.065,0.147,3.102c-8.203,0.004-16.408,0.008-24.613,0.013
	C16.908,39.24,16.908,38.117,16.908,36.994z"/>
<path fill="#AEAEAE" d="M41.522,40.352c-0.037-1.034,0.146-2.079-0.149-3.102c-0.126-0.133-0.25-0.267-0.374-0.397
	c0.005-0.988-0.02-1.979,0.02-2.969c0.036-0.938-0.375-1.312-1.308-1.301c-2.192,0.027-4.388,0.006-6.58,0.006
	c-4.774,0-9.551,0.03-14.324-0.021c-1.223-0.013-1.73,0.388-1.647,1.635c0.051,0.754,0.183,1.554-0.25,2.271
	c0-1.556,0-3.108,0-4.664c6-0.017,11.998-0.038,17.996-0.044c2.381-0.003,4.763,0.027,7.142,0.044c0,7.945,0,15.895,0,23.841
	c-0.185-0.321-0.369-0.646-0.554-0.967c0.451-2.028,0.492-4.058-0.02-6.082c-0.182-0.862-0.889-0.526-1.363-0.528
	c-6.104-0.025-12.207-0.022-18.311-0.015c-1.63,0.003-3.26,0.05-4.891,0.075c0-0.259,0-0.518,0-0.776
	c7.797,0.01,15.594,0.018,23.393,0.029c0.715,0.002,1.268-0.086,1.252-1.029c-0.018-0.963-0.664-0.843-1.252-0.842
	c-7.797,0.006-15.596,0.019-23.393,0.027c0-0.087,0-0.173,0-0.259c4.859-0.023,9.716-0.054,14.574-0.07
	c2.709-0.01,5.418,0,8.127-0.002c1.945-0.002,1.949-0.005,1.947-2.01c-0.002-0.858-0.021-1.72-0.033-2.579
	C41.522,40.535,41.522,40.443,41.522,40.352z"/>
<path fill="#BBBBBB" d="M41.556,6.464c-0.01,0.159-0.021,0.317-0.031,0.478c-0.049,0.073-0.053,0.147-0.014,0.226
	c0.205,1.317-0.492,1.595-1.65,1.591C32.211,8.731,24.56,8.747,16.908,8.749c0-0.776,0-1.556,0-2.333
	C25.126,6.432,33.341,6.448,41.556,6.464z"/>
<path fill="#CACACA" d="M41.556,6.464c-8.215-0.016-16.43-0.032-24.647-0.048c0-0.604,0-1.209,0-1.813
	c0.087-0.086,0.173-0.173,0.26-0.26c8.118,0,16.237,0,24.358,0c0.069,0.274,0.205,0.485,0.518,0.519c0,0.346,0,0.69,0,1.037
	C41.739,5.962,41.67,6.232,41.556,6.464z"/>
<path fill="#8F8F8F" d="M16.908,13.931c0.07,0.034,0.145,0.045,0.222,0.029c8.045,0.009,16.088,0.018,24.133,0.024
	c0.352,0.739,0.727,1.481-0.271,2.04c-0.774-0.03-1.549-0.091-2.323-0.09c-7.253,0.018-14.507,0.043-21.758,0.066
	C16.908,15.312,16.908,14.622,16.908,13.931z"/>
<path fill="#CACACA" d="M16.908,45.546c7.797-0.011,15.595-0.021,23.392-0.027c0.588-0.001,1.236-0.121,1.252,0.842
	c0.018,0.944-0.537,1.031-1.252,1.029c-7.797-0.014-15.595-0.021-23.392-0.029C16.908,46.755,16.908,46.15,16.908,45.546z"/>
<path fill="#FCFCFC" d="M42.045,31.812c-2.38-0.017-4.761-0.047-7.142-0.044c-5.998,0.006-11.996,0.027-17.996,0.044
	c0-0.52,0-1.036,0-1.557c8.379,0,16.757,0,25.137,0C42.045,30.775,42.045,31.293,42.045,31.812z"/>
<path fill="#CACACA" d="M41.267,56.43c-7.775,0-15.554-0.021-23.331,0.025c-0.896,0.005-1.216-0.191-1.027-1.062
	c7.622,0.001,15.245-0.004,22.866,0.015c0.607,0,1.326-0.236,1.744,0.496C41.435,56.079,41.351,56.254,41.267,56.43z"/>
<path fill="#BBBBBB" d="M41.519,55.903c-0.418-0.732-1.137-0.496-1.744-0.496c-7.621-0.019-15.244-0.014-22.866-0.015
	c0-0.174,0-0.347,0-0.519c0.6-0.073,1.199-0.209,1.797-0.209c7.596-0.006,15.19,0.009,22.786,0.02
	c0.185,0.322,0.369,0.646,0.554,0.968c0,0.086,0,0.173,0,0.26C41.87,55.908,41.694,55.906,41.519,55.903z"/>
<path fill="#CACACA" d="M16.908,48.137c1.631-0.026,3.261-0.073,4.891-0.076c6.104-0.01,12.206-0.013,18.31,0.015
	c0.478,0.002,1.185-0.334,1.363,0.528c-4.998,0.021-9.996,0.049-14.994,0.062c-3.189,0.009-6.38-0.005-9.569-0.009
	C16.908,48.482,16.908,48.31,16.908,48.137z"/>
<path fill="#CACACA" d="M16.908,16.004c7.251-0.023,14.505-0.051,21.759-0.066c0.773-0.001,1.549,0.06,2.322,0.09
	c-0.019,0.125-0.033,0.249-0.049,0.374c-7.289,0.002-14.576,0.002-21.864,0.014c-0.723,0.001-1.445,0.07-2.169,0.108
	C16.908,16.349,16.908,16.177,16.908,16.004z"/>
<path fill="#9E9E9E" d="M41.522,40.352c0,0.092,0,0.185,0.002,0.273c-8.205-0.001-16.41-0.002-24.616-0.004c0-0.087,0-0.173,0-0.26
	C25.114,40.359,33.317,40.355,41.522,40.352z"/>
<path fill="#AEAEAE" d="M41.519,55.903c0.176,0.004,0.352,0.006,0.525,0.009c0.158,0.8-0.447,0.449-0.777,0.52
	C41.351,56.254,41.435,56.079,41.519,55.903z"/>
<path fill="#FCFCFC" d="M42.045,4.861c-0.312-0.032-0.447-0.243-0.519-0.519C41.976,4.24,42.149,4.412,42.045,4.861z"/>
<path fill="#BBBBBB" d="M17.169,4.343c-0.086,0.087-0.172,0.174-0.26,0.26C16.858,4.379,16.944,4.292,17.169,4.343z"/>
<path fill="#9E9E9E" d="M40.946,25.036c0.021,1.074,0.025,2.149,0.064,3.225c0.033,0.886-0.385,1.226-1.246,1.224
	c-7.102-0.012-14.201-0.016-21.301,0.003c-0.946,0.003-1.344-0.391-1.287-1.315c0.063-1.022-0.166-2.068,0.247-3.063
	c1.853-0.003,3.705-0.003,5.558-0.009c5.984-0.021,11.971-0.042,17.957-0.062L40.946,25.036z"/>
<path fill="#CACACA" d="M41.263,13.986c-8.045-0.008-16.088-0.018-24.133-0.024c0.069-0.651,0.558-0.686,1.045-0.686
	c7.373-0.002,14.746-0.004,22.119,0.007C40.754,13.283,41.306,13.251,41.263,13.986z"/>
<path fill="#CACACA" d="M40.94,25.035c-5.986,0.021-11.975,0.043-17.959,0.062c-1.852,0.006-3.705,0.006-5.557,0.009
	c0.011-0.089,0.021-0.178,0.031-0.268c7.367-0.001,14.732-0.004,22.1,0C40.022,24.84,40.509,24.752,40.94,25.035z"/>
<path fill="#CACACA" d="M41.511,7.166c-0.039-0.077-0.035-0.151,0.014-0.226C41.519,7.016,41.515,7.091,41.511,7.166z"/>
<path fill="#CACACA" d="M41.034,21.177c-0.344,0.484-0.86,0.313-1.311,0.314c-7.111,0.011-14.226,0.011-21.337,0
	c-0.45,0-0.966,0.156-1.308-0.328c1.2-0.032,2.4-0.091,3.602-0.093c6.229-0.009,12.457-0.007,18.688,0
	C39.923,21.073,40.479,21.141,41.034,21.177z"/>
<path fill="#CACACA" d="M40.999,36.853c0.124,0.133,0.248,0.267,0.374,0.397c-7.658,0.013-15.317,0.021-22.978,0.036
	c-0.48,0-0.943-0.063-1.367-0.312c0.556-0.036,1.11-0.104,1.665-0.104C26.129,36.859,33.563,36.857,40.999,36.853z"/>
</svg>
