<?xml version="1.0" encoding="utf-8"?>
<!-- Generator: Adobe Illustrator 16.0.0, SVG Export Plug-In . SVG Version: 6.00 Build 0)  -->
<!DOCTYPE svg PUBLIC "-//W3C//DTD SVG 1.1//EN" "http://www.w3.org/Graphics/SVG/1.1/DTD/svg11.dtd">
<svg version="1.1"
	 id="svg4541" xmlns:sodipodi="http://sodipodi.sourceforge.net/DTD/sodipodi-0.dtd" xmlns:inkscape="http://www.inkscape.org/namespaces/inkscape" xmlns:dc="http://purl.org/dc/elements/1.1/" xmlns:cc="http://creativecommons.org/ns#" xmlns:rdf="http://www.w3.org/1999/02/22-rdf-syntax-ns#" xmlns:svg="http://www.w3.org/2000/svg" inkscape:version="0.92.2 5c3e80d, 2017-08-06" sodipodi:docname="VCA.svg"
	 xmlns="http://www.w3.org/2000/svg" xmlns:xlink="http://www.w3.org/1999/xlink" x="0px" y="0px" width="90.135px" height="380px"
	 viewBox="0 0 90.135 380" enable-background="new 0 0 90.135 380" xml:space="preserve">
<path id="path33453" fill="#E6E6E6" stroke="#595A5A" stroke-miterlimit="10" d="M0,0h90.135v379.912H0V0z"/>
<g>
	<rect x="-23.811" y="131.981" fill="#595A5A" stroke="#595A5A" stroke-miterlimit="10" width="1.586" height="202.199"/>
</g>
<sodipodi:namedview  units="px" id="base" pagecolor="#ffffff" bordercolor="#666666" borderopacity="1.0" inkscape:zoom="0.49497475" inkscape:cx="-640.37084" inkscape:cy="-87.479401" showgrid="false" fit-margin-top="0" fit-margin-left="0" inkscape:window-width="2560" inkscape:current-layer="g13224" fit-margin-right="0" inkscape:pageshadow="2" inkscape:window-y="18" inkscape:pageopacity="0.0" fit-margin-bottom="0" inkscape:window-maximized="0" inkscape:window-x="0" inkscape:document-units="mm" inkscape:window-height="1422">
	</sodipodi:namedview>
<g>
	<path stroke="#231F20" stroke-width="0.25" stroke-miterlimit="10" d="M44.021,367.67c-0.378,0.168-1.092,0.309-1.905,0.309
		c-2.213,0-3.628-1.346-3.628-3.502c0-2.004,1.373-3.643,3.922-3.643c0.561,0,1.177,0.1,1.625,0.268l-0.336,1.582
		c-0.252-0.104-0.63-0.211-1.19-0.211c-1.121,0-1.849,0.799-1.835,1.92c0,1.26,0.84,1.92,1.877,1.92
		c0.504,0,0.896-0.086,1.219-0.211L44.021,367.67z"/>
	<path stroke="#231F20" stroke-width="0.25" stroke-miterlimit="10" d="M45.937,362.066h1.274l0.042-0.448
		c0.111-0.938,0.63-3.039,3.039-3.039c0.477,0,0.911,0.098,1.163,0.224l-0.336,1.514c-0.169-0.062-0.394-0.127-0.659-0.127
		c-0.7,0-1.036,0.506-1.12,1.271l-0.084,0.605h1.429v1.479H49.08l-0.312,2.493c-0.211,1.709-0.785,3.062-2.771,3.062
		c-0.575-0.015-1.065-0.125-1.275-0.229l0.294-1.479c0.21,0.084,0.434,0.104,0.659,0.104c0.7-0.021,0.938-0.396,1.139-1.98
		l0.229-1.97H45.94v-1.479H45.937L45.937,362.066L45.937,362.066z"/>
</g>
<line fill="none" stroke="#7A7B7B" stroke-miterlimit="10" x1="24.571" y1="217.505" x2="65.563" y2="217.505"/>
<line fill="none" stroke="#7A7B7B" stroke-miterlimit="10" x1="24.571" y1="284.543" x2="65.563" y2="284.543"/>
<line fill="none" stroke="#7A7B7B" stroke-miterlimit="10" x1="24.571" y1="250.525" x2="65.563" y2="250.525"/>
<line fill="none" stroke="#BDBDBD" stroke-miterlimit="10" x1="29.573" y1="237.518" x2="60.562" y2="237.518"/>
<line fill="none" stroke="#BDBDBD" stroke-miterlimit="10" x1="29.573" y1="230.514" x2="60.562" y2="230.514"/>
<line fill="none" stroke="#BDBDBD" stroke-miterlimit="10" x1="29.573" y1="223.511" x2="60.562" y2="223.511"/>
<line fill="none" stroke="#BDBDBD" stroke-miterlimit="10" x1="29.573" y1="244.52" x2="60.562" y2="244.52"/>
<line fill="none" stroke="#BDBDBD" stroke-miterlimit="10" x1="29.573" y1="271.538" x2="60.562" y2="271.538"/>
<line fill="none" stroke="#BDBDBD" stroke-miterlimit="10" x1="29.573" y1="264.535" x2="60.562" y2="264.535"/>
<line fill="none" stroke="#BDBDBD" stroke-miterlimit="10" x1="29.573" y1="257.532" x2="60.562" y2="257.532"/>
<line fill="none" stroke="#BDBDBD" stroke-miterlimit="10" x1="29.573" y1="278.541" x2="60.562" y2="278.541"/>
<text transform="matrix(1 0 0 1 120.1543 86.1484)" font-family="'Futura-CondensedExtraBold'" font-size="10">SEND 2</text>
<text transform="matrix(1 0 0 1 126.6113 110.1484)" font-family="'Futura-CondensedExtraBold'" font-size="10">PAN</text>
<g enable-background="new    ">
	<path d="M34.31,24.921h-2.473l-0.1-4.125l-0.079-1.646c-0.029,0.316-0.061,0.618-0.098,0.905c-0.037,0.287-0.082,0.565-0.134,0.835
		l-0.799,4.031h-2.03l-0.656-4.037c-0.039-0.234-0.092-0.637-0.158-1.207c-0.008-0.086-0.025-0.262-0.053-0.527l-0.059,1.67
		l-0.217,4.102h-2.602l1.055-9.047h3.041l0.51,3.047c0.043,0.25,0.081,0.521,0.114,0.814c0.033,0.293,0.063,0.611,0.091,0.955
		c0.05-0.574,0.119-1.088,0.207-1.541l0.608-3.275h2.953L34.31,24.921z"/>
	<path d="M41.991,24.921h-2.525l-0.182-1.148h-1.646l-0.199,1.148h-2.525l2.174-9.047h2.988L41.991,24.921z M38.997,21.868
		l-0.158-1.055c-0.004-0.004-0.012-0.057-0.023-0.158c-0.008-0.086-0.049-0.426-0.123-1.021c-0.008-0.066-0.018-0.157-0.029-0.272
		c-0.011-0.115-0.027-0.261-0.047-0.437l-0.076-0.855c-0.008,0.082-0.019,0.174-0.032,0.275c-0.013,0.101-0.028,0.213-0.044,0.334
		c-0.027,0.242-0.047,0.41-0.059,0.504c-0.012,0.094-0.02,0.15-0.023,0.17l-0.17,1.096l-0.246,1.418H38.997z"/>
	<path d="M42.507,24.552v-2.783c0.48,0.656,1,0.984,1.559,0.984c0.211,0,0.383-0.054,0.516-0.161
		c0.133-0.107,0.199-0.242,0.199-0.404c0-0.233-0.145-0.462-0.434-0.684l-0.398-0.3c-0.266-0.192-0.492-0.383-0.68-0.573
		s-0.34-0.387-0.457-0.588c-0.117-0.202-0.203-0.41-0.258-0.625c-0.055-0.215-0.082-0.44-0.082-0.678
		c0-0.407,0.098-0.833,0.293-1.278c0.098-0.207,0.211-0.396,0.34-0.567c0.129-0.172,0.277-0.323,0.445-0.455
		c0.461-0.377,1.018-0.565,1.67-0.565c0.582,0,1.167,0.149,1.757,0.449v2.715c-0.199-0.309-0.426-0.552-0.68-0.729
		c-0.254-0.177-0.504-0.267-0.75-0.267c-0.188,0-0.342,0.053-0.463,0.158c-0.125,0.102-0.188,0.224-0.188,0.367
		c0,0.233,0.166,0.465,0.498,0.694l0.387,0.277c0.516,0.357,0.885,0.725,1.107,1.101c0.227,0.377,0.34,0.817,0.34,1.322
		c0,0.858-0.271,1.566-0.814,2.123c-0.543,0.558-1.23,0.836-2.062,0.836C43.778,24.921,43.163,24.798,42.507,24.552z"/>
	<path d="M51.46,24.921h-2.443v-6.879h-1.348v-2.168h5.191v2.168h-1.4V24.921z"/>
	<path d="M53.493,24.921v-9.047h4.541v2.168h-2.098v1.154h1.881v2.168h-1.881v1.389h2.098v2.168H53.493z"/>
	<path d="M65.511,24.921h-2.643l-1.207-3.223c-0.012-0.055-0.032-0.127-0.062-0.217c-0.029-0.09-0.064-0.197-0.107-0.322
		l0.018,0.598v3.164h-2.432v-9.047h2.502c1.102,0,1.926,0.217,2.473,0.65c0.695,0.555,1.043,1.344,1.043,2.367
		c0,1.094-0.467,1.85-1.4,2.268L65.511,24.921z M61.521,19.935h0.164c0.281,0,0.517-0.107,0.703-0.322
		c0.188-0.215,0.281-0.488,0.281-0.82c0-0.676-0.354-1.014-1.061-1.014h-0.088V19.935L61.521,19.935z"/>
</g>
<line fill="none" stroke="#595A5A" stroke-miterlimit="10" x1="-34.984" y1="-45.5" x2="-34.984" y2="517.167"/>
<g enable-background="new    ">
	<path fill="#999999" d="M44.75,177.449c0,1.109-0.262,2.012-0.786,2.706c-0.521,0.691-1.2,1.037-2.036,1.037
		c-0.742,0-1.378-0.266-1.909-0.797c-0.667-0.673-1.001-1.682-1.001-3.027c0-1.288,0.348-2.273,1.045-2.956
		c0.518-0.506,1.131-0.759,1.841-0.759c0.869,0,1.561,0.343,2.075,1.027C44.492,175.366,44.75,176.289,44.75,177.449z
		 M42.635,177.465c0-1.337-0.241-2.006-0.723-2.006c-0.241,0-0.433,0.176-0.576,0.526c-0.14,0.326-0.21,0.805-0.21,1.437
		c0,0.622,0.066,1.105,0.198,1.448c0.132,0.343,0.315,0.515,0.549,0.515c0.241,0,0.426-0.169,0.557-0.508
		C42.567,178.54,42.635,178.069,42.635,177.465z"/>
	<path fill="#999999" d="M45.619,181.192v-7.539h1.942l1.021,2.646c0.055,0.156,0.118,0.335,0.188,0.537
		c0.07,0.202,0.147,0.435,0.232,0.698l0.21,0.664c-0.075-0.654-0.132-1.214-0.171-1.68c-0.039-0.466-0.059-0.856-0.059-1.172v-1.694
		h1.963v7.539h-1.963l-1.088-2.773c-0.113-0.296-0.217-0.574-0.309-0.832c-0.091-0.26-0.172-0.506-0.24-0.74
		c0.082,0.53,0.141,0.993,0.178,1.387c0.039,0.394,0.058,0.739,0.058,1.035v1.924H45.619z"/>
</g>
<line fill="none" stroke="#595A5A" stroke-width="3" stroke-miterlimit="10" x1="2.04" y1="-45.5" x2="2.04" y2="517.167"/>
<line fill="none" stroke="#595A5A" stroke-width="3" stroke-miterlimit="10" x1="88.091" y1="-45.5" x2="88.091" y2="517.167"/>
<circle fill="#FFFFFF" stroke="#000000" stroke-width="10" stroke-miterlimit="10" cx="21.499" cy="323.687" r="9.395"/>
<circle fill="#FFFFFF" stroke="#000000" stroke-width="10" stroke-miterlimit="10" cx="21.499" cy="348.703" r="9.395"/>
<circle fill="#FFFFFF" stroke="#000000" stroke-width="10" stroke-miterlimit="10" cx="68.526" cy="323.687" r="9.395"/>
<circle fill="#FFFFFF" stroke="#000000" stroke-width="10" stroke-miterlimit="10" cx="68.526" cy="348.703" r="9.395"/>
<g enable-background="new    ">
	<path fill="#999999" d="M40.973,318.234h-2.036v-5.732h-0.815v-1.807h2.852V318.234z"/>
</g>
<g enable-background="new    ">
	<path fill="#999999" d="M42.098,344.251h-5.163l2.061-2.727c0.234-0.31,0.431-0.587,0.591-0.831
		c0.16-0.243,0.285-0.459,0.376-0.646c0.179-0.352,0.269-0.713,0.269-1.085c0-0.203-0.043-0.364-0.129-0.483
		c-0.086-0.12-0.203-0.18-0.352-0.18c-0.331,0-0.496,0.306-0.496,0.918c0,0.032,0.001,0.071,0.002,0.117s0.004,0.1,0.007,0.161
		h-1.963l-0.01-0.273c0-0.751,0.233-1.356,0.699-1.815c0.469-0.463,1.07-0.694,1.801-0.694c0.706,0,1.282,0.229,1.728,0.688
		c0.45,0.448,0.675,1.033,0.675,1.756c0,0.581-0.152,1.146-0.457,1.694c-0.154,0.274-0.354,0.562-0.599,0.863
		c-0.245,0.302-0.543,0.619-0.892,0.951c0.301-0.079,0.605-0.135,0.912-0.169c0.306-0.034,0.62-0.051,0.94-0.051V344.251z"/>
</g>
<g enable-background="new    ">
	<path fill="#999999" d="M51.711,318.234h-3.564v-7.539h2.036v5.732h1.528V318.234z"/>
</g>
<g enable-background="new    ">
	<path fill="#999999" d="M53.508,344.251h-2.202l-1.006-2.686c-0.01-0.046-0.026-0.105-0.051-0.181s-0.055-0.164-0.091-0.269
		l0.015,0.498v2.637h-2.026v-7.539h2.085c0.918,0,1.605,0.181,2.061,0.542c0.58,0.462,0.869,1.12,0.869,1.973
		c0,0.911-0.389,1.541-1.167,1.89L53.508,344.251z M50.183,340.096h0.137c0.234,0,0.43-0.09,0.586-0.269s0.234-0.407,0.234-0.684
		c0-0.563-0.294-0.845-0.884-0.845h-0.073V340.096z"/>
</g>
</svg>
